<svg width="181.221" height="228.957" viewBox="0 0 47.948 60.578" xmlns="http://www.w3.org/2000/svg"><g stroke-width=".493"><g stroke-width=".655"><path d="M20.212 4.104a4.104 4.104 0 0 1-4.103 4.103 4.104 4.104 0 0 1-4.104-4.103A4.104 4.104 0 0 1 16.11 0a4.104 4.104 0 0 1 4.103 4.104z" fill="#cd191e"/><path d="M13.381 8.891h5.455a.69.69 0 0 1 .692.692v5.455a.69.69 0 0 1-.692.692h-5.455a.69.69 0 0 1-.692-.692V9.583a.69.69 0 0 1 .692-.692zM21.588 8.891h5.456a.69.69 0 0 1 .692.692v5.455a.69.69 0 0 1-.692.692h-5.456a.69.69 0 0 1-.692-.692V9.583a.69.69 0 0 1 .692-.692zM13.381 17.098h5.455a.69.69 0 0 1 .692.692v5.456a.69.69 0 0 1-.692.692h-5.455a.69.69 0 0 1-.692-.692V17.79a.69.69 0 0 1 .692-.692zM13.381 25.306h5.455a.69.69 0 0 1 .692.692v5.455a.69.69 0 0 1-.692.692h-5.455a.69.69 0 0 1-.692-.692v-5.455a.69.69 0 0 1 .692-.692zM21.588 17.098h5.456a.69.69 0 0 1 .692.692v5.456a.69.69 0 0 1-.692.692h-5.456a.69.69 0 0 1-.692-.692V17.79a.69.69 0 0 1 .692-.692zM21.588 25.306h5.456a.69.69 0 0 1 .692.692v5.455a.69.69 0 0 1-.692.692h-5.456a.69.69 0 0 1-.692-.692v-5.455a.69.69 0 0 1 .692-.692zM21.588.684h5.456a.69.69 0 0 1 .692.692v5.455a.69.69 0 0 1-.692.692h-5.456a.69.69 0 0 1-.692-.692V1.376a.69.69 0 0 1 .692-.692zM29.796.684h5.455a.69.69 0 0 1 .692.692v5.455a.69.69 0 0 1-.692.692h-5.455a.69.69 0 0 1-.693-.692V1.376a.69.69 0 0 1 .693-.692zM29.796 17.098h5.455a.69.69 0 0 1 .692.692v5.456a.69.69 0 0 1-.692.692h-5.455a.69.69 0 0 1-.693-.692V17.79a.69.69 0 0 1 .693-.692z" fill="#2f9e41"/></g><path d="m-151.857 132.296-1.155 3.288h.748l.237-.78h1.194l.237.78h.748l-1.16-3.288zm-1.155 3.288c-.15-.215-.47-.69-.963-1.426.194-.086.344-.203.45-.352a.874.874 0 0 0 .159-.515c0-.33-.107-.576-.32-.737-.214-.163-.543-.244-.988-.244h-.954v3.274h.694v-1.256h.37l.781 1.256zm-13.67-3.274v3.274h.682v-1.294h1.111v-.567h-1.11v-.844h1.193v-.569zm2.516 0v3.274h1.886v-.573h-1.191v-.845h1.108v-.568h-1.108v-.72h1.191v-.568zm2.572 0v3.274h.927c.579 0 1.022-.143 1.328-.43.307-.287.461-.7.461-1.238 0-.506-.148-.9-.443-1.183-.296-.282-.711-.423-1.246-.423zm3.395 0v3.274h1.886v-.573h-1.192v-.845h1.109v-.568h-1.109v-.72h1.192v-.568zm8.761 0v3.274h2.023v-.573h-1.329v-2.701zm-1.99.495c.011.054.03.127.057.22l.372 1.197h-.853c.233-.754.374-1.226.423-1.417zm-9.472.074h.37c.62 0 .931.351.931 1.055 0 .718-.334 1.077-1.003 1.077h-.298zm5.966 0h.21c.225 0 .39.033.496.098.107.066.16.176.16.332 0 .156-.051.271-.156.345-.104.073-.266.11-.486.11h-.224z" style="line-height:1.25;-inkscape-font-specification:'Open Sans, Bold';font-variant-ligatures:normal;font-variant-caps:normal;font-variant-numeric:normal;font-feature-settings:normal;text-align:start" font-weight="700" font-size="10.886" font-family="Open Sans" letter-spacing="0" word-spacing="0" transform="matrix(2.0291 0 0 2.0291 342.643 -222.094)"/><path d="M-154.354 136.671a2.744 2.744 0 0 1-.146.254c-.06.098-.117.18-.17.25v.04h.184c.07-.057.154-.138.25-.243a2.45 2.45 0 0 0 .218-.266v-.034zm-5.965.178v2.427h.282v-.955h.286c.312 0 .551-.066.718-.197.168-.133.253-.322.253-.568 0-.471-.304-.707-.91-.707zm.282.244h.315c.223 0 .387.04.492.118.105.078.157.198.157.358 0 .179-.055.308-.167.389-.112.08-.293.12-.543.12h-.254zm4.444.33a.55.55 0 0 0-.314.096.8.8 0 0 0-.244.274h-.014l-.031-.337h-.228v1.82h.276v-.976c0-.179.052-.327.156-.447a.487.487 0 0 1 .378-.18c.058 0 .124.009.2.026l.038-.256a1.078 1.078 0 0 0-.218-.02zm-2.039.003a1.284 1.284 0 0 0-.616.156l.085.211a1.2 1.2 0 0 1 .515-.14c.135 0 .232.035.293.104.062.067.093.172.093.315v.113l-.308.01c-.588.018-.882.21-.882.577 0 .172.051.304.153.397.103.093.244.14.425.14a.83.83 0 0 0 .337-.06.772.772 0 0 0 .272-.232h.013l.055.258h.204v-1.241c0-.213-.052-.367-.157-.463-.104-.097-.265-.145-.482-.145zm3.214 0a1.284 1.284 0 0 0-.616.156l.085.211a1.2 1.2 0 0 1 .514-.14c.135 0 .233.035.294.104.062.067.093.172.093.315v.113l-.309.01c-.588.018-.881.21-.881.577 0 .172.05.304.152.397.103.093.245.14.425.14a.83.83 0 0 0 .337-.06.772.772 0 0 0 .272-.232h.014l.055.258h.204v-1.241c0-.213-.053-.367-.158-.463-.104-.097-.264-.145-.481-.145zm-2.85.955v.164c0 .17-.05.301-.148.395a.556.556 0 0 1-.403.141.38.38 0 0 1-.254-.078c-.06-.052-.09-.128-.09-.227 0-.127.048-.22.144-.28.098-.062.256-.096.475-.104zm3.213 0v.164c0 .17-.05.301-.148.395a.556.556 0 0 1-.403.141.38.38 0 0 1-.254-.078c-.06-.052-.09-.128-.09-.227 0-.127.049-.22.145-.28.097-.062.255-.096.475-.104z" style="line-height:1.25;-inkscape-font-specification:'Open Sans, Normal';font-variant-ligatures:normal;font-variant-caps:normal;font-variant-numeric:normal;font-feature-settings:normal;text-align:start" font-weight="400" font-size="8.068" font-family="Open Sans" letter-spacing="0" word-spacing="0" transform="matrix(2.0291 0 0 2.0291 342.643 -222.094)"/><path d="M-146.788 127.838c-.504 0-.89.144-1.16.433-.27.286-.404.702-.404 1.247 0 .545.135.963.403 1.254.27.291.654.437 1.156.437.502 0 .887-.146 1.156-.437.268-.29.403-.707.403-1.25s-.134-.96-.401-1.25c-.266-.289-.65-.434-1.153-.434zm-15.881.004c-.347 0-.619.083-.816.25-.195.165-.293.393-.293.682 0 .154.03.288.09.403.06.115.139.216.24.303.1.086.25.177.45.27.213.102.354.176.423.222.07.047.123.095.159.146.035.05.053.106.053.17 0 .115-.04.202-.123.26-.08.058-.197.087-.35.087-.126 0-.266-.02-.42-.06a3.846 3.846 0 0 1-.56-.208v.645c.269.131.578.197.927.197.38 0 .675-.086.887-.256.213-.17.32-.403.32-.698a.854.854 0 0 0-.17-.54c-.114-.148-.323-.295-.63-.441a4.603 4.603 0 0 1-.44-.229.493.493 0 0 1-.135-.132.302.302 0 0 1-.042-.161c0-.099.035-.179.105-.24.07-.061.17-.092.302-.092.11 0 .223.015.336.043.115.028.26.078.434.15l.224-.54a3.324 3.324 0 0 0-.486-.17 1.91 1.91 0 0 0-.485-.06zm-6.195.047v3.275h.694v-3.275zm1.523 0v3.275h.62v-1.541c0-.187-.014-.499-.043-.936h.02l1.425 2.477h.882v-3.275h-.624v1.55c0 .177.01.477.033.903h-.016l-1.422-2.453zm5.932 0v.578h.89v2.697h.694v-2.697h.889v-.578zm2.981 0v3.275h.695v-3.275zm1.203 0v.578h.889v2.697h.694v-2.697h.89v-.578zm2.958 0V130c0 .375.117.67.35.887.233.215.56.323.98.323.28 0 .522-.049.726-.146a1.05 1.05 0 0 0 .469-.419c.109-.182.163-.394.163-.636v-2.119h-.692v2c0 .254-.052.441-.155.56-.101.118-.265.177-.492.177-.235 0-.403-.059-.504-.177-.102-.117-.153-.303-.153-.555v-2.005zm3.17 0v.578h.889v2.697h.694v-2.697h.889v-.578zm4.309.527c.55 0 .826.369.826 1.106 0 .736-.277 1.104-.831 1.104-.276 0-.484-.092-.623-.277-.138-.185-.208-.461-.208-.827 0-.366.07-.641.21-.826.141-.187.35-.28.626-.28z" style="line-height:1.25;-inkscape-font-specification:'Open Sans, Bold';font-variant-ligatures:normal;font-variant-caps:normal;font-variant-numeric:normal;font-feature-settings:normal;text-align:start" font-weight="700" font-size="10.886" font-family="Open Sans" letter-spacing="0" word-spacing="0" transform="matrix(2.0291 0 0 2.0291 342.643 -222.094)"/></g></svg>